<?xml version="1.0" encoding="utf-8"?>
<!-- Generator: Adobe Illustrator 16.0.0, SVG Export Plug-In . SVG Version: 6.00 Build 0)  -->
<!DOCTYPE svg PUBLIC "-//W3C//DTD SVG 1.1//EN" "http://www.w3.org/Graphics/SVG/1.1/DTD/svg11.dtd">
<svg version="1.1" id="Ebene_1" xmlns="http://www.w3.org/2000/svg" xmlns:xlink="http://www.w3.org/1999/xlink" x="0px" y="0px"
	 width="50.6px" height="50.1px" viewBox="0 0 50.6 50.1" style="enable-background:new 0 0 50.6 50.1;" xml:space="preserve">
<style type="text/css">
<![CDATA[
	.st0{fill:#353535;}
]]>
</style>
<g>
	<g>
		<path class="st0" d="M24.7,50.1c-3.4-1.9-6.7-3.9-10.1-5.8l-5-2.9l-5-3l-0.3-0.2l-0.1-0.4c-0.7-3.9-1.3-7.8-2-11.7
			c-0.7-3.9-1.3-7.8-1.9-11.7L0,12.7l1.7,0.9l11.7,5.9c3.9,2,7.8,4,11.6,6l0.4,0.2l0,0.5c-0.1,4-0.2,8-0.3,12
			C25,42.1,24.9,46.1,24.7,50.1z M24.7,50.1c-0.2-4-0.3-8-0.5-12c-0.1-4-0.2-8-0.3-12l0.4,0.7c-3.9-1.9-7.8-3.8-11.8-5.7L0.9,15.3
			l1.4-1C2.9,18.2,3.5,22.1,4,26c0.6,3.9,1.1,7.8,1.7,11.7l-0.3-0.5l4.9,3.2l4.8,3.2C18.3,45.8,21.5,47.9,24.7,50.1z"/>
	</g>
	<g>
		<path class="st0" d="M27.3,50.1c3.2-2.2,6.4-4.4,9.6-6.6c3.2-2.2,6.4-4.3,9.7-6.4l-0.4,0.6c0.3-3.8,0.7-7.6,1-11.4L48.4,15l1.4,1
			l-11,5.5c-3.7,1.8-7.4,3.6-11.1,5.4l0.4-0.7c-0.1,4-0.2,8-0.3,12C27.7,42.1,27.6,46.1,27.3,50.1z M27.3,50.1c-0.2-4-0.3-8-0.5-12
			c-0.1-4-0.2-8-0.3-12l0-0.5l0.4-0.2c3.6-1.9,7.3-3.8,10.9-5.7l11-5.5l1.6-0.8l-0.2,1.8l-1.2,11.3c-0.4,3.8-0.9,7.6-1.3,11.3l0,0.4
			l-0.3,0.2c-3.3,2-6.7,4-10,5.9C34.1,46.3,30.7,48.3,27.3,50.1z"/>
	</g>
	<g>
		<path class="st0" d="M26,24.1c-4-1.7-7.9-3.6-11.9-5.4c-3.9-1.8-7.9-3.7-11.8-5.6l-1.4-0.7l1.4-0.7c3.7-2,7.5-3.9,11.3-5.8
			l11.3-5.7L25.3,0l0.5,0.2l11.3,6c3.8,2,7.5,4.1,11.3,6.1l1.3,0.7l-1.3,0.6c-3.7,1.8-7.4,3.5-11.1,5.3C33.5,20.7,29.8,22.5,26,24.1
			z M26,24.1c3.6-2,7.2-4,10.8-5.9c3.6-1.9,7.2-3.9,10.9-5.8l0,1.4c-3.8-1.9-7.6-3.9-11.4-5.8L24.9,2l0.9,0L14.4,7.6
			C10.6,9.5,6.8,11.3,3,13.1l0-1.4c3.9,2,7.7,4.1,11.6,6.1C18.4,19.9,22.2,21.9,26,24.1z"/>
	</g>
</g>
<g>
	<path class="st0" d="M15.3,31c0,0.9-0.5,1.7-1.2,2.1l-0.2,4l-1.5,0.3l-0.2-4.3c-0.9-0.4-1.6-1.4-1.6-2.6c0-1.5,1.3-2.5,2.6-2.2
		C14.4,28.6,15.3,29.8,15.3,31z"/>
</g>
</svg>
